<svg width="361" height="106" viewBox="0 0 361 106" fill="none" xmlns="http://www.w3.org/2000/svg">
<path d="M127.74 49.4639V51.3085H96.1674V49.4639H105.39C103.103 48.1198 101.301 46.3038 99.9854 44.0159C98.6984 41.6994 98.0549 39.0826 98.0549 36.1655C98.0549 31.7613 99.5707 28.0721 102.602 25.0979C105.662 22.1236 109.394 20.6365 113.798 20.6365C118.717 20.6365 122.836 22.5097 126.153 26.2561L121.992 30.9749C119.876 28.3438 117.245 27.0283 114.099 27.0283C111.582 27.0283 109.423 27.8576 107.621 29.5164C105.848 31.1465 104.962 33.3629 104.962 36.1655C104.962 38.9396 105.805 41.1703 107.492 42.8576C109.18 44.5449 111.225 45.3886 113.627 45.3886C116.916 45.3886 119.604 44.0874 121.692 41.4849L125.982 45.9034C124.723 47.3619 123.308 48.5488 121.735 49.4639H127.74Z" fill="#1E4F64"/>
<path d="M163.88 49.4639V51.3085H152.597L149.809 44.8309H137.24L134.452 51.3085H123.169V49.4639H128.103L140.286 21.3228H146.763L158.903 49.4639H163.88ZM143.546 30.2456L139.771 38.9539H147.278L143.546 30.2456Z" fill="#1E4F64"/>
<path d="M191.082 49.4639V51.3085H159.509V49.4639H168.732C166.444 48.1198 164.642 46.3038 163.327 44.0159C162.04 41.6994 161.396 39.0826 161.396 36.1655C161.396 31.7613 162.912 28.0721 165.944 25.0979C169.004 22.1236 172.736 20.6365 177.14 20.6365C182.059 20.6365 186.177 22.5097 189.495 26.2561L185.334 30.9749C183.217 28.3438 180.586 27.0283 177.44 27.0283C174.924 27.0283 172.764 27.8576 170.963 29.5164C169.19 31.1465 168.303 33.3629 168.303 36.1655C168.303 38.9396 169.147 41.1703 170.834 42.8576C172.521 44.5449 174.566 45.3886 176.968 45.3886C180.257 45.3886 182.946 44.0874 185.033 41.4849L189.323 45.9034C188.065 47.3619 186.649 48.5488 185.076 49.4639H191.082Z" fill="#1E4F64"/>
<path d="M205.166 49.4639V51.3085H191.096V49.4639H194.785V21.3228H201.477V49.4639H205.166Z" fill="#1E4F64"/>
<path d="M236.745 49.4639V51.3085H205.172V49.4639H214.395C212.107 48.1198 210.305 46.3038 208.99 44.0159C207.703 41.6994 207.059 39.0826 207.059 36.1655C207.059 31.7613 208.575 28.0721 211.607 25.0979C214.667 22.1236 218.399 20.6365 222.803 20.6365C227.722 20.6365 231.84 22.5097 235.158 26.2561L230.996 30.9749C228.88 28.3438 226.249 27.0283 223.103 27.0283C220.587 27.0283 218.427 27.8576 216.626 29.5164C214.852 31.1465 213.966 33.3629 213.966 36.1655C213.966 38.9396 214.81 41.1703 216.497 42.8576C218.184 44.5449 220.229 45.3886 222.631 45.3886C225.92 45.3886 228.608 44.0874 230.696 41.4849L234.986 45.9034C233.728 47.3619 232.312 48.5488 230.739 49.4639H236.745Z" fill="#1E4F64"/>
<path d="M272.884 49.4639V51.3085H261.602L258.813 44.8309H246.244L243.456 51.3085H232.174V49.4639H237.107L249.29 21.3228H255.768L267.908 49.4639H272.884ZM252.55 30.2456L248.775 38.9539H256.282L252.55 30.2456Z" fill="#1E4F64"/>
<path d="M302.06 49.4639V51.3085H268.041V49.4639H272.203V21.3228H282.798C288.146 21.3228 292.25 22.6384 295.11 25.2695C297.97 27.8719 299.4 31.5469 299.4 36.2942C299.4 42.7003 296.912 47.0902 291.936 49.4639H302.06ZM283.142 45.3886C286.202 45.3886 288.547 44.6164 290.177 43.0721C291.836 41.5278 292.665 39.2828 292.665 36.3371C292.665 33.3915 291.836 31.1322 290.177 29.5593C288.547 27.9577 286.03 27.157 282.627 27.157H278.895V45.3886H283.142Z" fill="#1E4F64"/>
<path d="M337.566 49.4639V51.3085H326.284L323.495 44.8309H310.926L308.138 51.3085H296.856V49.4639H301.789L313.972 21.3228H320.45L332.59 49.4639H337.566ZM317.232 30.2456L313.457 38.9539H320.964L317.232 30.2456Z" fill="#1E4F64"/>
<path d="M360.355 49.4639V51.3085H332.986V49.4639H338.82C337.247 48.6631 335.817 47.6336 334.53 46.3753L338.52 41.4849C341.751 44.3162 344.74 45.7318 347.485 45.7318C348.715 45.7318 349.673 45.4744 350.36 44.9596C351.075 44.4162 351.432 43.7013 351.432 42.8147C351.432 41.8996 351.06 41.1846 350.317 40.6698C349.573 40.1264 348.1 39.5831 345.898 39.0397C342.409 38.2103 339.85 37.1379 338.22 35.8224C336.618 34.4782 335.817 32.3905 335.817 29.5593C335.817 26.6994 336.832 24.4973 338.863 22.953C340.922 21.4086 343.482 20.6365 346.542 20.6365C348.544 20.6365 350.546 20.9797 352.547 21.666C354.549 22.3524 356.294 23.3247 357.781 24.5831L354.392 29.4735C351.79 27.5001 349.101 26.5135 346.327 26.5135C345.212 26.5135 344.325 26.7852 343.668 27.3286C343.038 27.8433 342.724 28.544 342.724 29.4306C342.724 30.2885 343.11 30.9749 343.882 31.4897C344.683 32.0044 346.499 32.6193 349.33 33.3343C352.19 34.0206 354.406 35.0645 355.979 36.4658C357.552 37.8672 358.339 39.8119 358.339 42.2999C358.339 45.3886 357.18 47.7766 354.864 49.4639H360.355Z" fill="#1E4F64"/>
<path d="M129.714 92.3619V94.2065H95.6956V92.3619H99.8567V64.2208H110.452C115.8 64.2208 119.904 65.5363 122.764 68.1674C125.624 70.7699 127.054 74.4448 127.054 79.1922C127.054 85.5983 124.566 89.9882 119.59 92.3619H129.714ZM110.796 88.2866C113.856 88.2866 116.201 87.5144 117.831 85.9701C119.49 84.4257 120.319 82.1808 120.319 79.2351C120.319 76.2894 119.49 74.0301 117.831 72.4572C116.201 70.8557 113.684 70.0549 110.281 70.0549H106.549V88.2866H110.796Z" fill="#1E4F64"/>
<path d="M143.794 92.3619V94.2065H129.723V92.3619H133.413V64.2208H140.105V92.3619H143.794Z" fill="#1E4F64"/>
<path d="M175.973 92.3619V94.2065H143.799V92.3619H153.108C150.82 91.0177 149.019 89.2017 147.703 86.9138C146.416 84.5973 145.773 81.9806 145.773 79.0635C145.773 74.6593 147.288 70.9701 150.32 67.9958C153.38 65.0216 157.055 63.5344 161.345 63.5344C165.663 63.5344 169.409 64.9501 172.584 67.7813L169.109 72.8004C167.765 71.6279 166.521 70.8271 165.377 70.3981C164.262 69.9405 163.046 69.7117 161.731 69.7117C159.185 69.7117 157.04 70.584 155.296 72.3285C153.551 74.0444 152.679 76.318 152.679 79.1493C152.679 81.9806 153.508 84.2542 155.167 85.9701C156.855 87.6574 158.856 88.5011 161.173 88.5011C163.489 88.5011 165.42 88.0578 166.964 87.1712V78.9348H173.699V89.5735C172.727 90.6602 171.569 91.5897 170.224 92.3619H175.973Z" fill="#1E4F64"/>
<path d="M190.043 92.3619V94.2065H175.973V92.3619H179.662V64.2208H186.354V92.3619H190.043Z" fill="#1E4F64"/>
<path d="M216.131 92.3619V94.2065H190.049V92.3619H199.744V70.012H191.25V64.2208H214.929V70.012H206.436V92.3619H216.131Z" fill="#1E4F64"/>
<path d="M250.304 92.3619V94.2065H239.022L236.233 87.7289H223.664L220.876 94.2065H209.594V92.3619H214.527L226.71 64.2208H233.188L245.328 92.3619H250.304ZM229.97 73.1436L226.195 81.8519H233.702L229.97 73.1436Z" fill="#1E4F64"/>
<path d="M260.004 92.3619V94.2065H245.933V92.3619H249.623V64.2208H256.315V92.3619H260.004Z" fill="#1E4F64"/>
<path d="M287.378 92.3619V94.2065H260.009V92.3619H265.843C264.27 91.5611 262.84 90.5316 261.553 89.2732L265.543 84.3829C268.775 87.2141 271.763 88.6297 274.509 88.6297C275.738 88.6297 276.696 88.3724 277.383 87.8576C278.098 87.3142 278.455 86.5992 278.455 85.7127C278.455 84.7975 278.084 84.0826 277.34 83.5678C276.596 83.0244 275.124 82.481 272.921 81.9377C269.432 81.1083 266.873 80.0359 265.243 78.7203C263.641 77.3762 262.84 75.2885 262.84 72.4572C262.84 69.5974 263.856 67.3953 265.886 65.8509C267.945 64.3066 270.505 63.5344 273.565 63.5344C275.567 63.5344 277.569 63.8776 279.571 64.564C281.573 65.2504 283.317 66.2227 284.804 67.4811L281.415 72.3714C278.813 70.3981 276.125 69.4115 273.35 69.4115C272.235 69.4115 271.349 69.6831 270.691 70.2265C270.062 70.7413 269.747 71.442 269.747 72.3285C269.747 73.1865 270.133 73.8728 270.905 74.3876C271.706 74.9024 273.522 75.5173 276.353 76.2322C279.213 76.9186 281.43 77.9625 283.002 79.3638C284.575 80.7651 285.362 82.7098 285.362 85.1979C285.362 88.2866 284.204 90.6745 281.887 92.3619H287.378Z" fill="#1E4F64"/>
<path d="M85.0879 72.6838C81.8426 71.2514 77.9934 69.552 73.9261 69.8774C72.993 69.9515 70.8814 70.2263 66.6796 72.6838C65.6491 73.286 64.7102 73.894 63.7655 74.58C62.6142 74.5898 61.2078 74.7145 59.6514 75.1023C56.3846 75.9189 54.2185 77.4604 53.1218 78.2595C50.9556 79.8341 49.446 81.5784 48.4311 82.9952C48.9551 83.3421 49.6563 83.7241 50.5349 84.0028C51.4679 84.299 52.3406 84.3964 53.0906 84.3984C52.438 85.0512 51.7504 85.7431 51.018 86.4798C44.9111 92.6245 43.5495 94.0511 40.9664 94.1972C38.5042 94.3376 34.8849 93.6243 30.8487 93.9556C29.6059 94.0589 28.3066 94.2635 27.2333 94.9573C27.4885 95.6803 31.7526 98.0443 32.9233 98.5451C34.2888 99.1298 35.0972 99.35 35.1225 99.7515C35.1518 100.229 33.9986 100.377 33.1356 101.33C32.296 102.258 32.1422 103.489 32.1422 104.37C33.0772 104.534 34.5323 104.668 36.1744 104.253C38.6464 103.63 39.6477 102.244 42.4859 100.161C43.9877 99.0577 45.9279 97.9722 48.7388 97.025C52.0036 95.9259 54.4581 96.6021 57.7969 95.8927C59.7526 95.4776 61.5701 95.0567 63.2454 94.6318C63.0915 94.8618 62.961 95.0781 62.8519 95.2711C62.4253 96.0272 61.8818 96.9919 62.2383 97.4635C62.7973 98.2021 65.1972 97.253 66.14 96.8048C66.7829 96.4988 68.1835 95.8148 69.3834 94.2616C69.8607 93.6438 70.1976 93.0279 70.4392 92.4705C71.7658 91.9833 72.8936 91.4981 73.8092 91.0167C76.3006 89.7051 80.1576 87.6042 84.2698 82.2098C86.5197 79.2592 87.8287 76.4334 88.5943 74.4339C87.7742 73.9739 86.5781 73.3366 85.0879 72.6799V72.6838Z" fill="#BB852C"/>
<path d="M77.8412 85.7392C77.7711 85.7392 77.699 85.7275 77.6289 85.7061C76.7601 85.4215 75.1336 84.6849 73.9843 82.9328C73.6434 82.4125 72.8506 80.9918 72.8642 79.0449C72.8798 76.7842 73.9589 75.1647 74.6018 74.4007C74.8433 74.1123 75.2738 74.0753 75.5621 74.3169C75.8504 74.5586 75.8874 74.9893 75.6459 75.2777C75.1219 75.9014 74.2414 77.2207 74.2278 79.0527C74.2161 80.6273 74.8511 81.7655 75.1238 82.1806C76.0452 83.5857 77.3543 84.1782 78.0536 84.4062C78.412 84.5231 78.6068 84.909 78.4899 85.2656C78.3964 85.554 78.1295 85.7353 77.8412 85.7353V85.7392Z" fill="#F5EDD9"/>
<path d="M69.6814 82.5484C69.0269 82.5484 67.7958 82.3984 66.8335 81.4103C66.1069 80.6639 65.7621 79.8278 65.8089 78.9255C65.8946 77.2358 67.3439 76.3588 67.5095 76.2634C67.8348 76.0763 68.2536 76.1893 68.4406 76.5167C68.6276 76.8441 68.5146 77.2612 68.1873 77.4483C68.1484 77.4716 67.2212 78.0134 67.1705 78.9957C67.1315 79.7596 67.6419 80.2858 67.8114 80.4573C68.5769 81.2446 69.6814 81.194 69.8938 81.1745C70.2717 81.1414 70.5989 81.42 70.632 81.7942C70.6652 82.1703 70.3866 82.4997 70.0126 82.5328C69.9347 82.5387 69.8217 82.5465 69.6834 82.5465L69.6814 82.5484Z" fill="#F5EDD9"/>
<path d="M69.545 88.2001C69.019 88.2001 68.2048 88.091 67.445 87.5375C67.1295 87.3076 66.3931 86.7716 66.212 85.7465C66.0094 84.6142 66.6444 83.7567 66.8451 83.5209C67.0886 83.2325 67.5191 83.1974 67.8054 83.4391C68.0937 83.6827 68.1288 84.1134 67.8872 84.3999C67.8152 84.4856 67.4548 84.9455 67.5561 85.5068C67.6418 85.9921 68.0236 86.2688 68.2515 86.4345C68.7872 86.8242 69.3833 86.8496 69.693 86.8301C70.067 86.8048 70.3923 87.0932 70.4157 87.4693C70.4391 87.8455 70.1527 88.169 69.7768 88.1923C69.7086 88.1962 69.6326 88.2001 69.5469 88.2001H69.545Z" fill="#F5EDD9"/>
<path d="M63.4848 85.7877C63.4322 85.7877 63.3777 85.7858 63.3251 85.7819C62.4894 85.7175 61.4745 85.1407 61.2213 84.024C61.0284 83.1704 61.3673 82.2622 62.0842 81.7107C62.3822 81.4807 62.8108 81.5372 63.0407 81.8374C63.2705 82.1355 63.214 82.5643 62.914 82.7943C62.616 83.0223 62.4738 83.3887 62.5498 83.7258C62.655 84.1935 63.1439 84.4021 63.4263 84.4235C63.5121 84.4313 63.5997 84.4235 63.6874 84.4001C64.0517 84.3066 64.4237 84.5268 64.5172 84.8912C64.6107 85.2557 64.3906 85.6279 64.0263 85.7214C63.8471 85.7682 63.664 85.7916 63.4828 85.7916L63.4848 85.7877Z" fill="#F5EDD9"/>
<path d="M63.1479 89.9094C62.9044 89.9094 62.6511 89.8704 62.3979 89.7749C61.5408 89.4572 60.9252 88.6348 60.8278 87.6818C60.7012 86.4579 61.4648 85.6628 61.6187 85.5147C61.8914 85.2555 62.3219 85.2652 62.581 85.5381C62.8401 85.8109 62.8303 86.2416 62.5596 86.5027C62.542 86.5203 62.1213 86.9295 62.1836 87.5415C62.2284 87.9741 62.505 88.3581 62.8732 88.4945C63.2862 88.6484 63.666 88.4009 63.7069 88.3717C64.0166 88.1593 64.4413 88.2372 64.6556 88.5471C64.8679 88.857 64.79 89.2818 64.4803 89.4962C64.153 89.7223 63.6758 89.9074 63.1498 89.9074L63.1479 89.9094Z" fill="#F5EDD9"/>
<path d="M59.1916 88.3814C59.1001 88.3814 59.0066 88.3756 58.915 88.3658C57.7326 88.2294 56.4937 87.2082 56.6047 85.9629C56.6768 85.1482 57.3138 84.5363 57.8865 84.2342C58.2196 84.0588 58.6326 84.1875 58.8079 84.5207C58.9832 84.854 58.8546 85.2671 58.5215 85.4425C58.3754 85.5185 57.9897 85.7836 57.9644 86.0817C57.9274 86.4891 58.5585 86.9509 59.0728 87.0094C59.2325 87.0269 59.3981 87.0094 59.5676 86.9529C59.9241 86.834 60.3117 87.0269 60.4305 87.3836C60.5494 87.7402 60.3565 88.128 60 88.2469C59.7332 88.3366 59.4624 88.3814 59.1936 88.3814H59.1916Z" fill="#F5EDD9"/>
<path d="M58.6267 93.203C58.2761 93.203 57.8846 93.1387 57.4833 92.9555C56.597 92.5482 56.2249 91.9168 56.0691 91.4588C55.6834 90.3187 56.2931 89.3618 56.4197 89.1825C56.6359 88.8746 57.0606 88.7986 57.3703 89.0149C57.6781 89.2312 57.7541 89.6561 57.5378 89.966C57.5222 89.9874 57.1814 90.4863 57.3625 91.0222C57.4638 91.3204 57.6956 91.5543 58.0521 91.718C58.6462 91.9908 59.2462 91.7336 59.3592 91.679C59.6981 91.5172 60.1053 91.6615 60.2689 92.0006C60.4306 92.3397 60.2864 92.747 59.9475 92.9107C59.7585 93.0003 59.2579 93.2069 58.6287 93.2069L58.6267 93.203Z" fill="#F5EDD9"/>
<path d="M80.8237 76.3377C81.4692 76.3377 81.9925 75.8141 81.9925 75.1683C81.9925 74.5225 81.4692 73.999 80.8237 73.999C80.1782 73.999 79.6549 74.5225 79.6549 75.1683C79.6549 75.8141 80.1782 76.3377 80.8237 76.3377Z" fill="#F5EDD9"/>
<path d="M43.2513 105.077C42.9299 105.184 42.6669 104.806 42.8831 104.543C45.7018 101.121 48.203 99.5055 50.1334 99.1898C53.9339 98.572 57.5786 100.496 62.5225 100.184C66.2159 99.9499 67.5775 99.0027 70.2657 97.6112C75.7453 94.7756 75.5992 92.9457 79.6452 91.9693C80.9016 91.6653 84.6573 90.8175 88.1188 92.7878C88.6662 93.0996 89.3285 93.6804 89.8856 94.2202C90.3025 94.6217 90.0434 95.3272 89.4668 95.3681C84.33 95.7384 82.2437 96.1145 81.6905 96.2665C80.1516 96.6894 77.9796 97.3501 75.5778 100.383C75.3674 100.649 75.6265 101.03 75.9518 100.932C77.929 100.345 77.6271 100.48 79.0647 99.981C80.3308 99.5406 83.732 98.535 85.7267 98.6207C86.352 98.648 87.3221 99.03 87.6825 99.3067C87.8792 99.4568 87.8636 99.7569 87.6571 99.8933C85.8767 101.059 83.4573 102.427 80.4341 103.573C78.0946 104.46 73.3571 106.036 67.4898 105.999C58.0812 105.941 58.1669 103.904 51.6821 103.894C48.1641 103.888 45.3531 104.368 43.2513 105.073V105.077Z" fill="#1E4F64"/>
<path d="M4.52194 99.8096C4.48687 99.759 4.53557 99.6927 4.59401 99.7102C6.14849 100.188 8.45878 100.677 11.1645 100.355C15.2241 99.8739 16.1494 98.0498 20.4563 97.4184C22.4393 97.1261 26.4424 96.5375 29.1345 98.997C30.5429 100.283 31.1078 101.963 31.3494 103.168C31.4078 103.46 31.1273 103.702 30.8448 103.61C30.1669 103.386 29.341 103.148 28.3904 102.945C25.2658 102.275 22.7724 102.404 21.9465 102.464C18.8726 102.684 18.9914 103.362 15.5046 103.779C13.0112 104.078 11.2171 104.294 9.19316 103.561C6.86144 102.717 5.36735 101.032 4.52194 99.8135V99.8096Z" fill="#1E4F64"/>
<path d="M16.5485 92.8288C16.4219 91.7375 16.1005 89.9816 15.2044 88.0346C14.6863 86.9082 13.7298 85.5109 11.815 82.7143C11.1429 81.734 10.5585 80.9077 10.2955 79.6156C10.0774 78.5379 10.1767 77.6044 10.2955 76.9846C9.6761 77.4173 8.79561 78.1013 7.89955 79.0894C5.53082 81.7028 4.78864 84.5248 4.21789 86.8069C3.7757 88.5725 3.28676 91.3633 3.54779 94.8557C4.66203 95.7677 6.20676 96.7305 8.17032 97.1183C10.5449 97.586 12.1539 96.9409 16.642 95.2552C16.6674 94.575 16.6557 93.7526 16.5485 92.8269V92.8288Z" fill="#AB4928"/>
<path d="M47.3324 85.174C46.2377 83.8137 42.3573 78.9942 42.3573 78.9942C39.5698 76.1274 36.0011 75.112 32.2123 74.3228C32.3545 74.9016 33.1999 76.1859 33.3324 76.5191C33.5311 77.0161 33.5642 77.5695 33.5447 78.0529C34.5362 79.1462 36.0634 81.1184 36.6186 83.4025C36.7706 84.0261 36.8446 84.6848 36.8407 85.3572C36.829 86.3316 36.6537 87.347 36.3167 88.374L36.1199 88.9743L35.5901 88.6313C33.6304 87.3626 31.7448 85.9516 29.9858 84.4412C28.1956 82.9036 25.9924 81.0112 23.8536 78.1971C23.8672 78.6239 23.8809 79.0292 23.8945 79.4483C23.8945 79.5028 23.8984 79.5574 23.9003 79.612C23.9003 79.6431 23.9023 79.6743 23.9042 79.7074C23.9062 79.7815 23.9081 79.8536 23.912 79.9296C23.912 79.9569 23.912 79.9842 23.914 80.0134C23.9159 80.0953 23.9198 80.1791 23.9218 80.2629C23.9218 80.2882 23.9218 80.3155 23.9237 80.3408C23.9257 80.4305 23.9296 80.5201 23.9315 80.6137C23.9315 80.6273 23.9315 80.6429 23.9315 80.6585C23.9334 80.7481 23.9354 80.8397 23.9373 80.9313C23.9373 80.9489 23.9373 80.9645 23.9373 80.982C23.9393 81.0814 23.9412 81.1847 23.9432 81.288C23.9432 81.3094 23.9432 81.3328 23.9432 81.3562C23.9451 81.4614 23.9471 81.5706 23.949 81.6816C23.949 81.7011 23.949 81.7206 23.949 81.7421C23.951 81.8609 23.9529 81.9798 23.9549 82.1045C23.9549 82.1104 23.9549 82.1162 23.9549 82.1221C23.9549 82.2429 23.9588 82.3676 23.9588 82.4963C23.9588 82.5158 23.9588 82.5372 23.9588 82.5567C23.9588 82.6853 23.9607 82.8198 23.9627 82.9562C23.9627 82.9796 23.9627 83.0049 23.9627 83.0283C23.9627 83.1686 23.9646 83.3109 23.9646 83.459C23.9646 83.4804 23.9646 83.5019 23.9646 83.5214C23.9646 83.6773 23.9646 83.8371 23.9646 84.0027C23.9705 86.3531 23.9354 88.5338 23.1465 91.194C22.8952 92.0379 22.6458 92.6674 22.4023 93.1546C26.4229 91.7241 28.7196 91.005 30.6052 90.9835C34.7096 90.9348 37.5166 91.9872 40.4016 91.613C41.0736 91.5253 45.2734 90.4437 47.2857 85.8464C47.3889 85.6105 47.4883 85.3767 47.3266 85.1779L47.3324 85.174Z" fill="#AB4928"/>
<path d="M31.4291 76.7935C31.4155 76.772 31.0259 76.2556 30.8467 75.7002C30.8097 75.5832 30.7512 75.476 30.7103 75.365C30.7084 75.3591 30.7064 75.3533 30.7045 75.3455C30.6831 75.287 30.6636 75.2266 30.6441 75.1681C30.6129 75.0746 30.5857 74.9849 30.5818 74.9732C30.5759 74.9518 30.5701 74.9284 30.5642 74.907C30.535 74.7959 30.4922 74.6205 30.4844 74.5854C30.4727 74.5328 30.4357 74.3165 30.4181 74.2015C30.4162 74.1859 30.387 74.0651 30.4103 73.7883C30.4415 73.4064 30.537 73.1511 30.6363 72.656C30.6947 72.3676 30.7493 72.0967 30.7999 71.8414C30.9616 71.3464 31.1876 70.6565 31.4837 69.7639L31.4915 69.7425C31.5402 69.5924 31.5967 69.4248 31.5577 69.3118C31.548 69.2806 31.5187 69.2514 31.4837 69.2202C31.4213 69.1656 31.3298 69.1111 31.2324 69.0624C31.1408 69.0234 31.0512 68.9805 30.9597 68.9376C30.7921 68.8655 30.6344 68.7934 30.4902 68.6882C30.2526 68.5147 30.1279 68.2438 30.1298 67.9671C30.1298 67.8112 30.1727 67.6553 30.2623 67.513C30.5058 67.1232 31.0103 66.9868 31.4174 67.2031C31.507 67.2499 31.5967 67.2967 31.6882 67.3396C31.772 67.3766 31.8674 67.4175 31.9726 67.4682C32.3388 67.626 32.7167 67.7527 33.1024 67.8482C34.6043 68.2224 35.7575 68.0061 37.3529 67.7059C39.11 67.3766 39.4061 67.0336 39.5035 66.9206C39.7021 66.6906 39.8736 66.3593 39.9846 65.989C40.0606 65.7376 40.0742 65.568 40.0723 65.3849C40.0723 65.3186 40.0723 65.2523 40.0684 65.1802C40.0664 65.1042 40.0625 65.0243 40.0625 64.9386C40.0625 64.6618 40.0917 64.3266 40.2281 63.8959C40.3235 63.5958 40.4073 63.4535 40.5339 63.2489C40.6294 63.0949 40.7735 62.863 41.0482 62.3193C41.4183 61.5846 41.4982 61.3195 41.5157 61.2357C41.5157 61.2318 41.5118 61.2279 41.5099 61.224C41.5099 61.2162 41.5138 61.2085 41.5157 61.2026C41.4651 61.037 41.3092 60.9025 41.243 60.8655C40.8846 60.768 40.5651 60.7544 40.23 60.7407C40.0255 60.7329 39.8151 60.7251 39.5989 60.6959C39.1859 60.6413 38.8782 60.31 38.8392 59.9105C38.8372 59.8637 38.8353 59.817 38.8392 59.7682C38.8879 59.2947 39.3067 58.9478 39.7801 58.9848C40.2262 59.0199 41.0073 58.9517 41.5878 58.8757C41.7047 58.8601 41.8741 58.8386 41.9969 58.8114C42.0008 58.8114 42.0066 58.8114 42.0124 58.8075C42.0085 58.7743 42.0046 58.7373 41.9969 58.7022C41.9969 58.6905 41.9969 58.6808 41.9969 58.6691C41.9793 58.5677 41.9559 58.4625 41.9423 58.406C41.7982 57.7882 41.3696 57.3361 41.0385 57.0671C40.8437 56.9093 40.7326 56.6813 40.717 56.4435C40.7131 56.309 40.7385 56.1726 40.7989 56.044C40.9722 55.6795 41.3716 55.4788 41.767 55.5587C42.1274 55.6328 42.8384 55.701 43.5591 55.3307C43.8805 55.165 44.8078 54.5336 44.8526 53.8281C44.8526 53.8086 44.8526 53.7911 44.8526 53.7736C44.8565 53.6391 44.8 53.5455 44.3753 53.0447C44.0305 52.6393 43.5611 52.0819 43.0117 51.203C41.5722 48.9014 41.2118 48.27 40.9781 47.3618C40.8514 46.8746 40.8027 46.479 40.795 46.1087C40.7891 45.7501 40.8203 45.413 40.8534 45.0368C40.8963 44.5808 40.943 44.0624 40.9488 43.3082C40.9488 43.2984 40.9488 43.2867 40.9488 43.277C40.9683 40.9208 40.645 39.3267 40.3722 38.4029C39.9885 37.1128 39.332 35.8928 38.4165 34.7566C38.0133 36.4443 37.1172 37.8592 36.9477 38.1223C35.4848 40.3752 34.6316 39.6268 31.6882 42.7411C29.9272 44.6042 29.189 45.9762 26.8378 47.5937C25.4976 48.5155 24.4437 48.9618 23.6821 48.5876C22.9769 48.2407 23.1094 47.4787 22.2211 46.8337C21.4555 46.2782 20.2419 46.0346 19.3576 46.4829C18.107 47.1163 17.9823 48.8956 17.8966 50.1078C17.8752 50.4001 17.8498 50.7704 17.8518 51.1894C17.8518 52.4308 18.0836 54.1029 19.416 55.3424C20.6315 56.4727 22.1217 56.652 22.7451 56.6871C22.7022 57.2464 22.6613 57.9772 22.6555 58.8425C22.6516 59.3648 22.6613 59.9339 22.6905 60.5458C22.8483 63.8453 23.4522 65.1978 23.8009 68.0295C23.8808 68.6765 23.91 69.0955 23.9119 69.5067C23.9119 69.534 23.9119 69.5593 23.9119 69.5866C23.908 70.335 23.8223 71.1204 23.8009 73.2505C23.797 73.5467 23.797 73.8682 23.797 74.219C23.797 74.562 23.797 74.9343 23.8009 75.3377C23.8067 76.1484 23.8204 76.8169 23.834 77.4132C23.8398 77.6841 23.8476 77.9394 23.8554 78.1869C25.9943 81.0011 28.1974 82.8934 29.9876 84.4311C31.7466 85.9414 33.6323 87.3524 35.5919 88.6211L36.1218 88.9641L36.3185 88.3639C36.6555 87.3368 36.8308 86.3234 36.8425 85.347C36.8464 84.6747 36.7724 84.0179 36.6205 83.3923C36.0653 81.1063 34.5381 79.1341 33.5466 78.0427C33.5368 78.2902 33.5135 78.5221 33.4901 78.7151C33.1648 78.335 31.9765 77.4444 31.433 76.7818L31.4291 76.7935Z" fill="#BB7D2B"/>
<path d="M23.9704 84.0007C23.9704 83.835 23.9626 82.6832 23.9606 82.5546C23.9606 82.5332 23.9373 81.0813 23.9353 80.9819C23.9353 80.9643 23.7931 73.5587 23.7951 73.2625C23.8165 71.1304 23.9022 70.347 23.9061 69.5986C23.9061 69.5713 23.9061 69.546 23.9061 69.5187C23.9041 69.1075 23.8749 68.6865 23.7951 68.0415C23.4464 65.2098 22.8425 63.8573 22.6847 60.5578C22.6555 59.9478 22.6458 59.3768 22.6496 58.8545C22.6555 57.9892 22.6964 57.2584 22.7393 56.6991C22.1159 56.664 20.6257 56.4847 19.4102 55.3544C18.0758 54.113 17.844 52.4428 17.846 51.2014C17.846 50.7824 17.8713 50.4101 17.8908 50.1197C17.9765 48.9076 18.1011 47.1283 19.3517 46.4949C20.2361 46.0466 21.4497 46.2902 22.2153 46.8457C23.1035 47.4907 22.9711 48.2527 23.6762 48.5996C24.4379 48.9738 25.4917 48.5275 26.8319 47.6057C29.1831 45.9882 29.9214 44.6162 31.6824 42.7531C34.6258 39.6388 35.479 40.3871 36.9419 38.1343C37.1133 37.8712 38.0074 36.4544 38.4107 34.7686C39.3282 35.9048 39.9846 37.1248 40.3664 38.4149C40.6411 39.3367 40.9625 40.9309 40.943 43.289C40.943 43.2987 40.943 43.3104 40.943 43.3202C40.9372 44.0744 40.8885 44.5908 40.8476 45.0488C40.8125 45.4249 40.7833 45.7621 40.7891 46.1207C40.7969 46.491 40.8456 46.8866 40.9722 47.3738C41.2079 48.282 41.5683 48.9134 43.0059 51.215C43.5552 52.0939 44.0267 52.6513 44.3695 53.0567C44.7942 53.5575 44.8487 53.653 44.8467 53.7856C44.8467 53.8031 44.8467 53.8206 44.8467 53.8401C44.8019 54.5456 43.8747 55.177 43.5533 55.3427C42.8345 55.711 42.1215 55.6448 41.7612 55.5707C41.3657 55.4908 40.9664 55.6896 40.793 56.056C40.7326 56.1846 40.7073 56.321 40.7112 56.4555C40.7268 56.6932 40.8378 56.9213 41.0326 57.0791C41.3657 57.3481 41.7923 57.8002 41.9365 58.418C41.9501 58.4745 41.9735 58.5797 41.991 58.6811C41.991 58.6908 41.991 58.7025 41.991 58.7142C41.9969 58.7512 42.0027 58.7863 42.0066 58.8195C42.0027 58.8195 41.9969 58.8195 41.991 58.8234C41.8683 58.8506 41.6988 58.8721 41.582 58.8877C41.0015 58.9637 40.2203 59.0319 39.7742 58.9968C39.3009 58.9598 38.884 59.3067 38.8334 59.7802C38.8275 59.829 38.8295 59.8757 38.8334 59.9225C38.8723 60.322 39.1801 60.6533 39.5931 60.7079C39.8093 60.7371 40.0216 60.7449 40.2242 60.7527C40.5612 60.7664 40.8807 60.7781 41.2372 60.8774C41.3053 60.9145 41.4592 61.0489 41.5099 61.2146C41.5099 61.2204 41.506 61.2282 41.504 61.236C41.504 61.2399 41.5079 61.2438 41.5099 61.2477C41.4923 61.3296 41.4105 61.5966 41.0424 62.3313C40.7697 62.8731 40.6236 63.1069 40.5281 63.2609C40.3995 63.4675 40.3177 63.6078 40.2223 63.9079C40.0859 64.3386 40.0567 64.6738 40.0567 64.9506C40.0567 65.0363 40.0586 65.1162 40.0625 65.1922C40.0645 65.2643 40.0664 65.3306 40.0664 65.3969C40.0664 65.58 40.0547 65.7515 39.9788 66.001C39.8658 66.3713 39.6963 66.7026 39.4976 66.9326C39.4002 67.0456 39.1041 67.3886 37.3471 67.7179C35.7517 68.0181 34.5985 68.2344 33.0966 67.8602C32.7109 67.7647 32.333 67.6361 31.9668 67.4802C31.8616 67.4295 31.7661 67.3866 31.6824 67.3516C31.5908 67.3087 31.5012 67.2619 31.4116 67.2151C31.0045 66.9988 30.5 67.1352 30.2565 67.525C30.1688 67.6653 30.126 67.8232 30.124 67.9791C30.1201 68.2539 30.2467 68.5267 30.4844 68.7002C30.6285 68.8054 30.7863 68.8756 30.9538 68.9496C31.0434 68.9925 31.135 69.0334 31.2266 69.0743C31.324 69.1231 31.4136 69.1776 31.4778 69.2322C31.5129 69.2634 31.5402 69.2946 31.5519 69.3238C31.5908 69.4368 31.5343 69.6064 31.4856 69.7545L31.4778 69.7759C31.1818 70.6685 30.9558 71.3584 30.7941 71.8534C30.7415 72.1087 30.687 72.3796 30.6305 72.668C30.5311 73.1631 30.4357 73.4184 30.4045 73.8003C30.3831 74.0771 30.4104 74.1979 30.4123 74.2135C30.4298 74.3265 30.5292 74.8059 30.5584 74.919C30.5642 74.9404 30.609 75.0866 30.6402 75.1801C30.6597 75.2386 30.8058 75.5933 30.8448 75.7102C31.024 76.2656 31.4136 76.7821 31.4272 76.8035C31.9707 77.4661 33.1609 78.3568 33.4842 78.7368C33.5076 78.5439 33.531 78.3139 33.5407 78.0644C33.5602 77.5811 33.5271 77.0276 33.3284 76.5307C33.196 76.1974 32.3505 74.9131 32.2083 74.3343C32.107 73.9231 32.1012 73.5567 32.1947 73.2332C32.2395 73.0773 32.4401 72.4459 33.1414 70.3275L33.1492 70.3041C33.1959 70.1657 33.2641 69.9533 33.2992 69.696C34.8809 69.9689 36.188 69.7233 37.6724 69.4446C39.745 69.0549 40.4132 68.5599 40.8261 68.0824C41.1865 67.6653 41.4748 67.1216 41.6599 66.5136C41.843 65.9114 41.8293 65.5001 41.8177 65.1708C41.8099 64.9096 41.804 64.7381 41.8975 64.4419C41.9306 64.3347 41.9326 64.3328 42.0222 64.1905C42.1274 64.021 42.3046 63.7364 42.6124 63.1245C43.2143 61.9279 43.3546 61.427 43.2319 60.8911C43.1851 60.6826 43.1053 60.4857 43.0059 60.3064C43.1228 60.2382 43.2338 60.1564 43.3332 60.0531C43.9643 59.4061 43.7422 58.4609 43.6468 58.0555C43.5845 57.7866 43.491 57.5235 43.3682 57.2721C43.6858 57.198 44.0189 57.083 44.3559 56.9096C44.574 56.7985 46.4869 55.7675 46.598 53.9551C46.6525 53.0742 46.2162 52.5578 45.7097 51.9614C45.3824 51.5755 44.9773 51.0961 44.4942 50.3224C43.0137 47.9526 42.8267 47.5706 42.6709 46.9723C42.4956 46.2941 42.5287 45.9336 42.5949 45.2145C42.6378 44.7467 42.6923 44.166 42.6981 43.3397C42.7196 40.7672 42.3572 38.9898 42.0475 37.953C41.4378 35.9009 40.2515 34.0144 38.5236 32.3403C38.4477 31.9349 38.3152 31.5374 38.1087 31.1574C37.8613 30.7033 37.164 29.6392 33.1414 28.351C29.4208 27.1602 26.8943 26.3515 23.3821 26.7724C17.6784 27.4565 14.0552 30.826 13.0384 31.8005C11.9709 32.8236 8.3652 36.2731 7.66198 41.3889C7.29382 44.0646 8.00677 45.1034 7.31135 48.6386C7.17109 49.3519 6.89448 50.5621 5.32442 54.4267C2.33039 61.7934 1.53562 61.809 1.05837 64.7167C0.916169 65.5878 0.9824 67.87 1.11681 72.4342C1.25706 77.1894 1.44017 77.4642 1.23369 79.2747C0.818771 82.9035 -0.0850865 83.2582 0.006468 86.1736C0.0882827 88.7871 0.888898 90.8178 1.23369 91.6694C1.97586 93.5033 3.54398 94.8656 3.54398 94.8656C3.54398 94.8656 3.77384 88.5805 4.21408 86.8168C4.78483 84.5347 5.52701 81.7127 7.89574 79.0993C8.7918 78.1112 9.67229 77.4272 10.2917 76.9945C10.1729 77.6143 10.0736 78.5478 10.2917 79.6255C10.5547 80.9176 11.1391 81.7439 11.8112 82.7242C13.726 85.5208 14.6825 86.9181 15.2006 88.0445C16.0967 89.9915 16.4181 91.7474 16.5447 92.8387C16.6519 93.7625 16.6655 94.5849 16.6382 95.267C17.6473 94.887 18.8024 94.4563 20.1465 93.973C20.9569 93.6806 21.7049 93.4117 22.4042 93.1622C22.6496 92.677 22.899 92.0475 23.1483 91.2017C23.9373 88.5415 23.9723 86.3607 23.9665 84.0104L23.9704 84.0007Z" fill="#3E2913"/>
<path d="M23.0198 51.1018C22.9069 50.6419 22.7413 49.9695 22.1725 49.6265C21.9991 49.5213 21.6816 49.381 21.5589 49.494C21.4322 49.6109 21.6134 49.9091 21.705 50.3262C21.8511 50.9946 21.5842 51.1349 21.5725 52.0217C21.5725 52.1113 21.5647 53.6275 22.1277 53.8049C22.3069 53.8614 22.5036 53.7698 22.5212 53.7601C22.7354 53.6568 22.8406 53.4365 22.9166 53.2046C23.2692 52.1152 23.0198 51.0999 23.0179 51.0999L23.0198 51.1018Z" fill="#341F11"/>
<path d="M37.4679 46.3506C37.9685 46.4695 38.3679 46.9391 38.4458 47.4751C38.5276 48.0383 38.2393 48.5801 37.7874 48.8627C37.3705 49.1238 36.7218 49.2232 36.2524 48.849C35.6485 48.3657 35.855 47.5024 35.8725 47.4322C36.0011 46.9313 36.3965 46.4968 36.8952 46.3642C36.9829 46.3408 37.1991 46.2863 37.4659 46.3506H37.4679Z" fill="#341F11"/>
<path d="M34.283 43.5482C34.9005 42.7316 35.8589 42.5698 36.5913 42.4471C37.1465 42.3535 37.8965 42.2366 38.7672 42.5581C39.0886 42.677 40.0646 43.0356 40.2145 43.8015C40.2555 44.012 40.2516 44.3394 40.0821 44.4622C39.8698 44.6161 39.523 44.3511 39.1471 44.164C38.4029 43.7937 37.4835 43.706 36.7959 43.897C36.3186 44.0295 35.3466 44.4661 34.8966 44.9357C34.8596 44.9747 34.7349 45.1092 34.546 45.1404C34.3025 45.1794 34.0161 45.0351 33.9031 44.8266C33.6596 44.3764 34.2168 43.6417 34.283 43.5521V43.5482Z" fill="#341F11"/>
<path d="M85.154 43.4273C84.3261 41.6227 82.3411 38.4909 79.2808 36.0606C78.2543 35.2441 77.4088 34.7491 76.6511 33.5174C75.3946 31.475 75.6752 29.5144 75.5992 27.4662C75.4687 23.9836 74.9564 21.4617 73.3201 19.0471C72.8876 18.4079 72.0714 17.2269 70.6026 16.2407C68.6936 14.9584 67.5872 15.2839 66.0444 14.2237C64.5445 13.1927 64.3438 12.0293 63.1517 9.83874C62.5381 8.71035 60.3758 4.73858 57.3662 2.73515C53.3592 0.0671641 48.3432 1.21699 47.4608 1.41967C39.252 3.30032 36.1898 12.0078 35.9775 12.6451C33.0341 12.8653 30.7375 13.6059 29.2278 14.2237C27.1688 15.0656 24.8001 16.0361 22.8287 18.4332C21.0561 20.5906 20.4405 22.8883 20.199 24.2213C22.4255 23.8842 26.0779 23.6152 30.3674 24.6598C32.6153 25.2074 35.8782 26.0396 39.1332 28.694C40.6273 29.912 44.683 33.2173 45.357 38.1654C45.4894 39.132 45.3648 39.2236 45.7076 44.7428C45.8206 46.5435 45.9316 48.052 46.9348 49.4785C47.6147 50.4471 48.2809 50.7726 49.0815 51.3748V30.2511C49.0698 30.2394 49.0581 30.2297 49.0464 30.218L41.5779 22.746C41.1065 22.2744 41.1065 21.5085 41.5779 21.0349L41.7065 20.9063C42.1779 20.4347 42.9434 20.4347 43.4168 20.9063L49.0815 26.5736V13.0076C49.0815 12.3391 49.623 11.7973 50.2912 11.7973H50.4743C51.1424 11.7973 51.684 12.3391 51.684 13.0076V26.9283L58.5895 20.0196C59.0609 19.548 59.8265 19.548 60.2998 20.0196L60.4284 20.1482C60.8998 20.6198 60.8998 21.3857 60.4284 21.8593L51.8223 30.4694C51.7794 30.5122 51.7327 30.5512 51.684 30.5863V41.4863L61.831 31.3347C62.3024 30.863 63.0679 30.863 63.5413 31.3347L63.6698 31.4633C64.1412 31.9349 64.1412 32.7008 63.6698 33.1744L51.8223 45.0273C51.7794 45.0702 51.7327 45.1092 51.684 45.1443V54.4676C51.7872 54.6625 51.8846 54.8593 51.9781 55.0581L51.8437 74.9131C52.4145 74.4512 53.4138 73.7613 54.8241 73.3345C56.1779 72.9233 57.3467 72.9272 58.0675 72.9837C58.0792 69.4524 58.0928 65.923 58.1045 62.3917C58.6012 62.6567 59.1135 62.9042 59.6453 63.1615C60.7966 63.7169 64.2269 65.3715 68.5943 65.5137V58.3965C68.4794 58.34 68.3703 58.264 68.2729 58.1685L61.9693 51.862C61.4978 51.3904 61.4978 50.6245 61.9693 50.1509L62.0978 50.0223C62.5692 49.5506 63.3348 49.5506 63.8081 50.0223L68.5943 54.8106V40.9562C68.5943 40.2877 69.1358 39.7459 69.804 39.7459H69.9871C70.6552 39.7459 71.1968 40.2877 71.1968 40.9562V54.4169L76.6102 49.0011C77.0816 48.5294 77.8471 48.5294 78.3205 49.0011L78.4491 49.1297C78.9205 49.6013 78.9205 50.3672 78.4491 50.8408L71.1968 58.0964V65.4124C72.6149 65.2506 74.0953 64.9076 75.6011 64.3035C76.8245 63.8124 82.6314 61.4816 85.1559 55.0951C85.4442 54.3682 87.5831 48.7243 85.1559 43.4312L85.154 43.4273Z" fill="#325F2F" stroke="#325F2F" stroke-miterlimit="10"/>
</svg>
